{"title":"Ocean's Thirteen(2007)MPEG-4[DaScubaDude]","uid":15059060,"size":1310590304,"categoryP":"video","categoryS":"movies","magnet":"?xt=urn:btih:2df1007cefc6ff344cdfae19c2e4492232b3f656&amp;dn=Ocean%27s+Thirteen%282007%29MPEG-4%5BDaScubaDude%5D&amp;tr=udp%3A%2F%2Ftracker.leechers-paradise.org%3A6969&amp;tr=udp%3A%2F%2Fzer0day.ch%3A1337&amp;tr=udp%3A%2F%2Fopen.demonii.com%3A1337&amp;tr=udp%3A%2F%2Ftracker.coppersurfer.tk%3A6969&amp;tr=udp%3A%2F%2Fexodus.desync.com%3A6969","seeders":0,"leechers":0,"uploader":"dascuba","files":1,"time":1466748159,"description":"Ocean's Thirteen (2007)\r\nPG-13 | 2h 2min | Crime, Thriller | 8 June 2007 (USA)\r\nDanny Ocean rounds up the boys for a third heist, after casino owner Willy Bank double-crosses one of the original eleven, Reuben Tishkoff.\r\nDirector: Steven Soderbergh\r\nWriters: Brian Koppelman, David Levien | \r\nStars: George Clooney, Brad Pitt, Matt Damon |\r\n\r\nGeneral\r\nComplete name                            : OceansThirteenOCEANS_THIRTEEN_Title1.mp4\r\nFormat                                   : MPEG-4\r\nFormat profile                           : Base Media\r\nCodec ID                                 : isom (isom/iso2/avc1/mp41)\r\nFile size                                : 1.22 GiB\r\nDuration                                 : 2h 2mn\r\nOverall bit rate                         : 1 432 Kbps\r\nMovie name                               : OCEANS_THIRTEEN\r\nGenre                                    : Comedy\r\nWriting application                      : Lavf54.6.100\r\n\r\nVideo\r\nID                                       : 1\r\nFormat                                   : AVC\r\nFormat/Info                              : Advanced Video Codec\r\nFormat profile                           :   \r\nFormat settings, CABAC                   : No\r\nFormat settings, ReFrames                : 6 frames\r\nCodec ID                                 : avc1\r\nCodec ID/Info                            : Advanced Video Coding\r\nDuration                                 : 2h 2mn\r\nBit rate                                 : 1 192 Kbps\r\nWidth                                    : 720 pixels\r\nHeight                                   : 404 pixels\r\nDisplay aspect ratio                     : 16:9\r\nFrame rate mode                          : Constant\r\nFrame rate                               : 29.970 (30000/1001) fps\r\nColor space                              : YUV\r\nChroma subsampling                       : 4:2:0\r\nBit depth                                : 8 bits\r\nScan type                                : Progressive\r\nBits/(Pixel*Frame)                       : 0.137\r\nStream size                              : 1.02 GiB (83%)\r\n\r\nAudio\r\nID                                       : 2\r\nFormat                                   : AAC\r\nFormat/Info                              : Advanced Audio Codec\r\nFormat profile                           : LC\r\nCodec ID                                 : 40\r\nDuration                                 : 2h 2mn\r\nBit rate mode                            : Constant\r\nBit rate                                 : 234 Kbps\r\nChannel(s)                               : 2 channels\r\nChannel(s)_Original                      : 6 channels\r\nChannel positions                        : Front: L C R, Side: L R, LFE\r\nSampling rate                            : 44.1 KHz\r\nFrame rate                               : 43.066 fps (1024 spf)\r\nCompression mode                         : Lossy\r\nStream size                              : 204 MiB (16%)\r\nDefault                                  : Yes\r\nAlternate group                          : 1","torrent":{"xt":"urn:btih:2df1007cefc6ff344cdfae19c2e4492232b3f656","amp;dn":"Ocean%27s+Thirteen%282007%29MPEG-4%5BDaScubaDude%5D","amp;tr":["udp%3A%2F%2Ftracker.leechers-paradise.org%3A6969","udp%3A%2F%2Fzer0day.ch%3A1337","udp%3A%2F%2Fopen.demonii.com%3A1337","udp%3A%2F%2Ftracker.coppersurfer.tk%3A6969","udp%3A%2F%2Fexodus.desync.com%3A6969"],"infoHash":"2df1007cefc6ff344cdfae19c2e4492232b3f656","infoHashBuffer":{"type":"Buffer","data":[45,241,0,124,239,198,255,52,76,223,174,25,194,228,73,34,50,179,246,86]},"announce":[],"urlList":[]}}